# xmcd CD database file
# Copyright (C) 1993-1998 Ti Kan
#
# Track frame offsets:
#  150
#  11892
#  27640
#  43335
#  59182
#  73770
#  87475
#  102750
#  125000
#  140117
#  151297
#  168630
#  182425
#  197255
#  214930
#  235197
#
# Disc length: 3319 seconds
#
# Revision: 1
# Processed by: cddbd v1.4b41PL1 Copyright (c) Steve Scherf et al.
# Submitted via: KiC 2.1 - (C) 1996-1998 Alwin Hoogerdijk
#
DISCID=f40cf510
DTITLE=Various Artist - Country´s Best "Untamed and True 2"
DYEAR=1900
DGENRE=
TTITLE0=Mark Chesnutt - Goin Through The Big D
TTITLE1=Reba McEntire - Why I Haven´t Heard From You
TTITLE2=Rhett Akins - What They´re Talkin About
TTITLE3=Terry McBride and The Ride - Been There
TTITLE4=The Mavericks - O What A Thrill
TTITLE5=Tracy Byrd - Watermelon Crawl
TTITLE6=George Straitt - The Man In Love with You
TTITLE7=Joel Feeney - What Kind Of A Man
TTITLE8=Mark Collie - Hard Lovin Woman
TTITLE9=Patty Loveless - Chains
TTITLE10=Rodney Crowell - I Don´t Fall In Love So Easy
TTITLE11=Marty Stuart - Kiss Me, I´m Gone
TTITLE12=Jason McCoy - Your Mama Warned You ´Bout Me
TTITLE13=Trisha Yearwood - The Song Remembers When
TTITLE14=Lionel Cartwright - Be My Angel
TTITLE15=Vince Gill - What the Cowgirl Do
EXTD=
EXTT0=
EXTT1=
EXTT2=
EXTT3=
EXTT4=
EXTT5=
EXTT6=
EXTT7=
EXTT8=
EXTT9=
EXTT10=
EXTT11=
EXTT12=
EXTT13=
EXTT14=
EXTT15=
PLAYORDER=
